<svg width="24.000000" height="24.000000" viewBox="0 0 24 24" fill="none" xmlns="http://www.w3.org/2000/svg" xmlns:xlink="http://www.w3.org/1999/xlink">
	<desc>
			Created with Pixso.
	</desc>
	<defs>
		<clipPath id="clip8_34">
			<rect width="24.000000" height="24.000000" fill="white" fill-opacity="0"/>
		</clipPath>
	</defs>
	<rect width="24.000000" height="24.000000" fill="#FFFFFF" fill-opacity="0"/>
	<g clip-path="url(#clip8_34)">
		<path d="M21 8C20.9996 7.64917 20.907 7.30469 20.7315 7.00098C20.556 6.69751 20.3037 6.44531 20 6.27002L13 2.27002C12.696 2.09448 12.3511 2.00195 12 2.00195C11.6489 2.00195 11.304 2.09448 11 2.27002L4 6.27002C3.69626 6.44531 3.44397 6.69751 3.26846 7.00098C3.09296 7.30469 3.00037 7.64917 3 8L3 16C3.00037 16.3506 3.09296 16.6951 3.26846 16.9988C3.44397 17.3025 3.69626 17.5544 4 17.73L11 21.73C11.304 21.9055 11.6489 21.9978 12 21.9978C12.3511 21.9978 12.696 21.9055 13 21.73L20 17.73C20.3037 17.5544 20.556 17.3025 20.7315 16.9988C20.907 16.6951 20.9996 16.3506 21 16L21 8Z" stroke="#FFFFFF" stroke-opacity="1.000000" stroke-width="2.000000" stroke-linejoin="round"/>
		<path d="M3.27002 6.95996L12 12.01L20.73 6.95996" stroke="#FFFFFF" stroke-opacity="1.000000" stroke-width="2.000000" stroke-linejoin="round" stroke-linecap="round"/>
		<path d="M12 22.0801L12 12" stroke="#FFFFFF" stroke-opacity="1.000000" stroke-width="2.000000" stroke-linejoin="round" stroke-linecap="round"/>
	</g>
</svg>
