<svg width="24.000000" height="24.000000" viewBox="0 0 24 24" fill="none" xmlns="http://www.w3.org/2000/svg" xmlns:xlink="http://www.w3.org/1999/xlink">
	<desc>
			Created with Pixso.
	</desc>
	<defs>
		<clipPath id="clip8_17">
			<rect width="24.000000" height="24.000000" fill="white" fill-opacity="0"/>
		</clipPath>
	</defs>
	<rect width="24.000000" height="24.000000" fill="#FFFFFF" fill-opacity="0"/>
	<g clip-path="url(#clip8_17)">
		<path d="M6.02512 3.02515C6.68152 2.36865 7.57175 2 8.5 2L12 2L12 9L8.5 9C7.57175 9 6.68152 8.63135 6.02512 7.97485C5.36874 7.3186 5 6.42822 5 5.5C5 4.57178 5.36874 3.6814 6.02512 3.02515Z" stroke="#FFFFFF" stroke-opacity="1.000000" stroke-width="2.000000" stroke-linejoin="round"/>
		<path d="M15.5 2C15.9596 2 16.4148 2.09058 16.8394 2.26636C17.264 2.44238 17.6499 2.7002 17.9749 3.02515C18.2999 3.3501 18.5577 3.73608 18.7336 4.16064C18.9095 4.58521 19 5.04028 19 5.5C19 5.95972 18.9095 6.41479 18.7336 6.83936C18.5577 7.26392 18.2999 7.6499 17.9749 7.97485C17.6499 8.2998 17.264 8.55762 16.8394 8.73364C16.4148 8.90942 15.9596 9 15.5 9L12 9L12 2L15.5 2Z" stroke="#FFFFFF" stroke-opacity="1.000000" stroke-width="2.000000" stroke-linejoin="round"/>
		<path d="M12.2664 11.1606C12.4423 10.7361 12.7001 10.3501 13.0251 10.0251C13.3501 9.7002 13.736 9.44238 14.1606 9.26636C14.5852 9.09058 15.0404 9 15.5 9C15.9596 9 16.4148 9.09058 16.8394 9.26636C17.264 9.44238 17.6499 9.7002 17.9749 10.0251C18.2999 10.3501 18.5577 10.7361 18.7336 11.1606C18.9095 11.5852 19 12.0403 19 12.5C19 12.9597 18.9095 13.4148 18.7336 13.8394C18.5577 14.2639 18.2999 14.6499 17.9749 14.9749C17.6499 15.2998 17.264 15.5576 16.8394 15.7336C16.4148 15.9094 15.9596 16 15.5 16C15.0404 16 14.5852 15.9094 14.1606 15.7336C13.736 15.5576 13.3501 15.2998 13.0251 14.9749C12.7001 14.6499 12.4423 14.2639 12.2664 13.8394C12.0905 13.4148 12 12.9597 12 12.5C12 12.0403 12.0905 11.5852 12.2664 11.1606Z" stroke="#FFFFFF" stroke-opacity="1.000000" stroke-width="2.000000" stroke-linejoin="round"/>
		<path d="M6.02512 17.0251C6.68152 16.3687 7.57175 16 8.5 16L12 16L12 19.5C12 20.4282 11.6313 21.3186 10.9749 21.9749C10.3185 22.6313 9.42825 23 8.5 23C7.57175 23 6.68152 22.6313 6.02512 21.9749C5.36874 21.3186 5 20.4282 5 19.5C5 18.5718 5.36874 17.6814 6.02512 17.0251Z" stroke="#FFFFFF" stroke-opacity="1.000000" stroke-width="2.000000" stroke-linejoin="round"/>
		<path d="M6.02512 10.0251C6.68152 9.36865 7.57175 9 8.5 9L12 9L12 16L8.5 16C7.57175 16 6.68152 15.6313 6.02512 14.9749C5.36874 14.3186 5 13.4282 5 12.5C5 11.5718 5.36874 10.6814 6.02512 10.0251Z" stroke="#FFFFFF" stroke-opacity="1.000000" stroke-width="2.000000" stroke-linejoin="round"/>
	</g>
</svg>
